<svg width="292" height="212" viewBox="0 0 292 212" fill="none" xmlns="http://www.w3.org/2000/svg">
<circle cx="145.75" cy="106" r="106" fill="#EAECF0"/>
<circle cx="34.4501" cy="26.5004" r="10.6" fill="#F2F4F7"/>
<circle cx="262.35" cy="166.95" r="7.95" fill="#F2F4F7"/>
<circle cx="33.125" cy="182.85" r="13.25" fill="#F2F4F7"/>
<circle cx="278.25" cy="60.9492" r="13.25" fill="#F2F4F7"/>
<circle cx="253.075" cy="14.5758" r="9.275" fill="#F2F4F7"/>
<g filter="url(#filter0_dd_33_9633)">
<path fill-rule="evenodd" clip-rule="evenodd" d="M150.368 21.199C128.193 21.199 108.577 32.1569 96.6392 48.9534C92.7411 48.034 88.6758 47.5476 84.4969 47.5476C55.3931 47.5476 31.7998 71.1409 31.7998 100.245C31.7998 129.349 55.3931 152.942 84.4969 152.942L84.5542 152.942H216.164C216.189 152.942 216.215 152.942 216.24 152.942C241.706 152.942 262.35 132.298 262.35 106.832C262.35 81.3661 241.706 60.7219 216.24 60.7219C214.431 60.7219 212.646 60.8261 210.892 61.0287C200.798 37.6004 177.498 21.199 150.368 21.199Z" fill="#F9FAFB"/>
<circle cx="84.4969" cy="100.244" r="52.6971" fill="url(#paint0_linear_33_9633)"/>
<circle cx="150.368" cy="87.0706" r="65.8714" fill="url(#paint1_linear_33_9633)"/>
<circle cx="216.24" cy="106.833" r="46.11" fill="url(#paint2_linear_33_9633)"/>
</g>
<g filter="url(#filter1_b_33_9633)">
<rect x="108.65" y="111.301" width="74.2" height="74.2" rx="37.1" fill="#FF7488"/>
<rect x="108.65" y="111.301" width="74.2" height="74.2" rx="37.1" fill="#3C8AFF"/>
</g>
<path d="M137.8 144.426V141.776C137.8 137.39 139.125 133.826 145.75 133.826C152.375 133.826 153.7 137.39 153.7 141.776V144.426" stroke="white" stroke-width="2.65" stroke-linecap="round" stroke-linejoin="round"/>
<path d="M145.75 155.688C147.579 155.688 149.062 154.204 149.062 152.375C149.062 150.546 147.579 149.062 145.75 149.062C143.92 149.062 142.437 150.546 142.437 152.375C142.437 154.204 143.92 155.688 145.75 155.688Z" stroke="white" stroke-width="2.65" stroke-linecap="round" stroke-linejoin="round"/>
<path d="M152.375 160.326H139.125C133.825 160.326 132.5 159.001 132.5 153.701V151.051C132.5 145.751 133.825 144.426 139.125 144.426H152.375C157.675 144.426 159 145.751 159 151.051V153.701C159 159.001 157.675 160.326 152.375 160.326Z" stroke="white" stroke-width="2.65" stroke-linecap="round" stroke-linejoin="round"/>
<defs>
<filter id="filter0_dd_33_9633" x="5.2998" y="21.1992" width="283.55" height="184.744" filterUnits="userSpaceOnUse" color-interpolation-filters="sRGB">
<feFlood flood-opacity="0" result="BackgroundImageFix"/>
<feColorMatrix in="SourceAlpha" type="matrix" values="0 0 0 0 0 0 0 0 0 0 0 0 0 0 0 0 0 0 127 0" result="hardAlpha"/>
<feMorphology radius="5.3" operator="erode" in="SourceAlpha" result="effect1_dropShadow_33_9633"/>
<feOffset dy="10.6"/>
<feGaussianBlur stdDeviation="5.3"/>
<feColorMatrix type="matrix" values="0 0 0 0 0.0627451 0 0 0 0 0.0941176 0 0 0 0 0.156863 0 0 0 0.03 0"/>
<feBlend mode="normal" in2="BackgroundImageFix" result="effect1_dropShadow_33_9633"/>
<feColorMatrix in="SourceAlpha" type="matrix" values="0 0 0 0 0 0 0 0 0 0 0 0 0 0 0 0 0 0 127 0" result="hardAlpha"/>
<feMorphology radius="5.3" operator="erode" in="SourceAlpha" result="effect2_dropShadow_33_9633"/>
<feOffset dy="26.5"/>
<feGaussianBlur stdDeviation="15.9"/>
<feColorMatrix type="matrix" values="0 0 0 0 0.0627451 0 0 0 0 0.0941176 0 0 0 0 0.156863 0 0 0 0.08 0"/>
<feBlend mode="normal" in2="effect1_dropShadow_33_9633" result="effect2_dropShadow_33_9633"/>
<feBlend mode="normal" in="SourceGraphic" in2="effect2_dropShadow_33_9633" result="shape"/>
</filter>
<filter id="filter1_b_33_9633" x="100.65" y="103.301" width="90.2002" height="90.1992" filterUnits="userSpaceOnUse" color-interpolation-filters="sRGB">
<feFlood flood-opacity="0" result="BackgroundImageFix"/>
<feGaussianBlur in="BackgroundImageFix" stdDeviation="4"/>
<feComposite in2="SourceAlpha" operator="in" result="effect1_backgroundBlur_33_9633"/>
<feBlend mode="normal" in="SourceGraphic" in2="effect1_backgroundBlur_33_9633" result="shape"/>
</filter>
<linearGradient id="paint0_linear_33_9633" x1="44.0331" y1="65.4263" x2="137.194" y2="152.941" gradientUnits="userSpaceOnUse">
<stop stop-color="#D0D5DD"/>
<stop offset="0.350715" stop-color="white" stop-opacity="0"/>
</linearGradient>
<linearGradient id="paint1_linear_33_9633" x1="99.7886" y1="43.5485" x2="216.24" y2="152.942" gradientUnits="userSpaceOnUse">
<stop stop-color="#D0D5DD"/>
<stop offset="0.350715" stop-color="white" stop-opacity="0"/>
</linearGradient>
<linearGradient id="paint2_linear_33_9633" x1="180.834" y1="76.3671" x2="262.35" y2="152.943" gradientUnits="userSpaceOnUse">
<stop stop-color="#D0D5DD"/>
<stop offset="0.350715" stop-color="white" stop-opacity="0"/>
</linearGradient>
</defs>
</svg>
