<svg width="37" height="26" viewBox="0 0 37 26" fill="none" xmlns="http://www.w3.org/2000/svg">
<path d="M27.25 13.8C26.2009 17.9858 23.2789 21 19.842 21C18.8586 21 17.9126 20.7498 17.0417 20.2948" stroke="#3C8AFF" stroke-width="2" stroke-miterlimit="10" stroke-linecap="round"/>
<path d="M22.875 12.4914C18.9381 14.9002 15.0013 17 10.6207 17C7.65816 17 4.47394 15.9981 3.52821 13.8557C1.88806 10.1677 6.37492 5.25405 12.5792 2.60001" stroke="#3C8AFF" stroke-width="2" stroke-miterlimit="10" stroke-linecap="round"/>
<path d="M14.8542 1.5935C15.9563 1.21404 17.1415 1 18.3733 1C23.0221 1 27.0045 3.96755 28.7083 8.2" stroke="#3C8AFF" stroke-width="2" stroke-miterlimit="10" stroke-linecap="round"/>
<path d="M24.3333 25H8.17056C5.97516 25 4.09861 23.3916 3.08302 22.3193C1.79671 20.9528 -0.111715 16.5749 1.82732 13.8" stroke="#3C8AFF" stroke-width="2" stroke-miterlimit="10" stroke-linecap="round"/>
<path d="M25.0625 10.252C26.1824 9.45621 27.4982 9 28.9168 9C32.9388 9 36 13.4137 36 17.9866C36 18.4747 35.9908 18.6657 35.9252 19.1325C35.4025 22.7188 32.9204 25 29.654 25H26.1264" stroke="#3C8AFF" stroke-width="2" stroke-miterlimit="10" stroke-linecap="round"/>
</svg>
